<svg xmlns="http://www.w3.org/2000/svg" xmlns:xlink="http://www.w3.org/1999/xlink" width="456" zoomAndPan="magnify" viewBox="0 0 342 75.749997" height="101" preserveAspectRatio="xMidYMid meet" version="1.0"><defs><g/><clipPath id="f1416fc5c5"><path d="M 0.5625 0.0351562 L 132 0.0351562 L 132 71.039062 L 0.5625 71.039062 Z M 0.5625 0.0351562 " clip-rule="nonzero"/></clipPath></defs><g clip-path="url(#f1416fc5c5)"><path fill="#ffffff" d="M 82.035156 10.824219 L 131.71875 71.105469 L 12.367188 71.105469 L 47.132812 28.945312 L 57.125 41.03125 Z M 86.070312 54.402344 L 120.367188 65.808594 L 82.035156 19.214844 L 81.953125 37.332031 L 87.066406 42.027344 L 80.09375 45.90625 Z M 70.574219 65.808594 L 57.152344 49.421875 L 47.160156 37.332031 L 47.160156 50.234375 L 50.308594 52.726562 L 47.214844 58.285156 Z M 81.769531 5.265625 L 81.117188 9.699219 L 79.570312 7.886719 L 57.152344 35.210938 L 47.160156 23.070312 L 23.71875 51.519531 L 7.542969 71.132812 L 0.621094 71.132812 L 16.796875 51.519531 L 47.132812 14.652344 L 57.125 26.742188 L 76.132812 3.71875 L 74.585938 1.832031 L 78.335938 1.019531 L 82.585938 0.0234375 Z M 81.769531 5.265625 " fill-opacity="1" fill-rule="nonzero"/></g><g fill="#ffffff" fill-opacity="1"><g transform="translate(134.913985, 43.223043)"><g><path d="M 2.285156 0 L 8.464844 0 L 8.464844 -10.96875 L 12.636719 -5.128906 L 16.683594 -5.128906 L 20.824219 -10.9375 L 20.824219 0 L 27.003906 0 L 27.003906 -21.625 L 21.9375 -21.625 L 14.644531 -11.339844 L 7.382812 -21.625 L 2.285156 -21.625 Z M 2.285156 0 "/></g></g></g><g fill="#ffffff" fill-opacity="1"><g transform="translate(173.779952, 43.223043)"><g><path d="M 0.15625 0 L 6.765625 0 L 7.941406 -3.058594 L 15.324219 -3.058594 L 16.5 0 L 23.140625 0 L 14.738281 -21.625 L 8.558594 -21.625 Z M 9.238281 -7.632812 L 11.648438 -14.335938 L 14.058594 -7.632812 Z M 9.238281 -7.632812 "/></g></g></g><g fill="#ffffff" fill-opacity="1"><g transform="translate(206.652447, 43.223043)"><g><path d="M 2.285156 0 L 8.527344 0 L 8.527344 -6.148438 L 10.875 -6.148438 L 13.964844 0 L 21.039062 0 L 17.054688 -7.292969 C 19.339844 -8.558594 20.636719 -10.84375 20.636719 -13.871094 C 20.636719 -18.660156 17.394531 -21.625 12.140625 -21.625 L 2.285156 -21.625 Z M 8.402344 -11.121094 L 8.402344 -16.527344 L 11.308594 -16.527344 C 13.285156 -16.527344 14.367188 -15.570312 14.367188 -13.839844 C 14.367188 -12.109375 13.285156 -11.121094 11.308594 -11.121094 Z M 8.402344 -11.121094 "/></g></g></g><g fill="#ffffff" fill-opacity="1"><g transform="translate(238.474543, 43.223043)"><g><path d="M 12.390625 0.464844 C 18.351562 0.464844 22.863281 -3.152344 23.789062 -8.652344 L 17.457031 -8.652344 C 16.683594 -6.613281 14.859375 -5.3125 12.511719 -5.3125 C 9.484375 -5.3125 7.382812 -7.570312 7.382812 -10.8125 C 7.382812 -14.089844 9.515625 -16.3125 12.574219 -16.3125 C 14.828125 -16.3125 16.714844 -15.046875 17.363281 -13.101562 L 23.664062 -13.101562 C 22.554688 -18.566406 18.105469 -22.089844 12.328125 -22.089844 C 5.652344 -22.089844 1.050781 -17.488281 1.050781 -10.8125 C 1.050781 -4.140625 5.652344 0.464844 12.390625 0.464844 Z M 12.390625 0.464844 "/></g></g></g><g fill="#ffffff" fill-opacity="1"><g transform="translate(272.82996, 43.223043)"><g><path d="M 8.03125 0 L 14.242188 0 L 14.242188 -7.539062 L 22.121094 -21.625 L 15.046875 -21.625 L 11.121094 -13.871094 L 9.453125 -17.148438 L 7.167969 -21.625 L 0.15625 -21.625 L 8.03125 -7.507812 Z M 8.03125 0 "/></g></g></g><g fill="#ffffff" fill-opacity="1"><g transform="translate(139.414783, 66.845129)"><g><path d="M 4.167969 0 L 5.554688 0 L 9.113281 -9.605469 L 11.078125 -4.320312 L 12.6875 0 L 14.078125 0 L 17.9375 -11.855469 L 16.378906 -11.855469 L 13.332031 -2.371094 L 9.824219 -11.855469 L 8.417969 -11.855469 L 4.914062 -2.386719 L 3.523438 -6.742188 L 1.878906 -11.855469 L 0.320312 -11.855469 Z M 4.167969 0 "/></g></g></g><g fill="#ffffff" fill-opacity="1"><g transform="translate(163.263545, 66.845129)"><g><path d="M 1.726562 0 L 9.113281 0 L 9.113281 -1.390625 L 3.21875 -1.390625 L 3.21875 -5.351562 L 8.503906 -5.351562 L 8.503906 -6.726562 L 3.21875 -6.726562 L 3.21875 -10.46875 L 8.925781 -10.46875 L 8.925781 -11.855469 L 1.726562 -11.855469 Z M 1.726562 0 "/></g></g></g><g fill="#ffffff" fill-opacity="1"><g transform="translate(179.067591, 66.845129)"><g><path d="M 1.726562 0 L 6.539062 0 C 8.925781 0 10.417969 -1.269531 10.417969 -3.320312 C 10.417969 -4.660156 9.757812 -5.65625 8.539062 -6.148438 C 9.503906 -6.640625 10.078125 -7.554688 10.078125 -8.707031 C 10.078125 -10.621094 8.589844 -11.855469 6.316406 -11.855469 L 1.726562 -11.855469 Z M 3.21875 -1.390625 L 3.21875 -5.371094 L 6.488281 -5.371094 C 8.027344 -5.371094 8.894531 -4.640625 8.894531 -3.386719 C 8.894531 -2.117188 8.027344 -1.390625 6.503906 -1.390625 Z M 3.21875 -6.726562 L 3.21875 -10.46875 L 6.285156 -10.46875 C 7.722656 -10.46875 8.554688 -9.789062 8.554688 -8.589844 C 8.554688 -7.402344 7.742188 -6.726562 6.285156 -6.726562 Z M 3.21875 -6.726562 "/></g></g></g><g fill="#ffffff" fill-opacity="1"><g transform="translate(196.023302, 66.845129)"><g/></g></g><g fill="#ffffff" fill-opacity="1"><g transform="translate(205.814977, 66.845129)"><g><path d="M 1.726562 0 L 5.828125 0 C 9.46875 0 11.90625 -2.421875 11.90625 -5.929688 C 11.90625 -9.433594 9.46875 -11.855469 5.828125 -11.855469 L 1.726562 -11.855469 Z M 3.21875 -1.421875 L 3.21875 -10.433594 L 5.757812 -10.433594 C 8.519531 -10.433594 10.382812 -8.621094 10.382812 -5.929688 C 10.382812 -3.234375 8.539062 -1.421875 5.828125 -1.421875 Z M 3.21875 -1.421875 "/></g></g></g><g fill="#ffffff" fill-opacity="1"><g transform="translate(224.294941, 66.845129)"><g><path d="M 1.726562 0 L 9.113281 0 L 9.113281 -1.390625 L 3.21875 -1.390625 L 3.21875 -5.351562 L 8.503906 -5.351562 L 8.503906 -6.726562 L 3.21875 -6.726562 L 3.21875 -10.46875 L 8.925781 -10.46875 L 8.925781 -11.855469 L 1.726562 -11.855469 Z M 1.726562 0 "/></g></g></g><g fill="#ffffff" fill-opacity="1"><g transform="translate(240.098988, 66.845129)"><g><path d="M 5.675781 0.21875 C 8.265625 0.21875 9.941406 -1.050781 9.941406 -3.117188 C 9.941406 -4.863281 8.773438 -5.910156 5.742188 -6.65625 C 3.4375 -7.214844 2.675781 -7.824219 2.675781 -8.808594 C 2.675781 -9.941406 3.691406 -10.65625 5.386719 -10.65625 C 7.132812 -10.65625 8.214844 -9.773438 8.25 -8.351562 L 9.722656 -8.351562 C 9.707031 -10.65625 8.046875 -12.078125 5.386719 -12.078125 C 2.796875 -12.078125 1.152344 -10.808594 1.152344 -8.808594 C 1.152344 -6.980469 2.457031 -5.960938 5.371094 -5.269531 C 7.503906 -4.761719 8.402344 -4.167969 8.402344 -3.066406 C 8.402344 -1.898438 7.351562 -1.203125 5.675781 -1.203125 C 3.828125 -1.203125 2.539062 -2.117188 2.507812 -3.640625 L 1.015625 -3.640625 C 1.035156 -1.320312 2.847656 0.21875 5.675781 0.21875 Z M 5.675781 0.21875 "/></g></g></g><g fill="#ffffff" fill-opacity="1"><g transform="translate(256.648224, 66.845129)"><g><path d="M 1.726562 0 L 3.21875 0 L 3.21875 -11.855469 L 1.726562 -11.855469 Z M 1.726562 0 "/></g></g></g><g fill="#ffffff" fill-opacity="1"><g transform="translate(267.185088, 66.845129)"><g><path d="M 7.011719 0.21875 C 10.65625 0.21875 13.109375 -2.539062 13.042969 -6.4375 L 6.605469 -6.4375 L 6.605469 -5.015625 L 11.433594 -5.015625 C 11.128906 -2.777344 9.433594 -1.269531 7.046875 -1.269531 C 4.386719 -1.269531 2.507812 -3.183594 2.507812 -5.929688 C 2.507812 -8.671875 4.371094 -10.585938 7.03125 -10.585938 C 8.859375 -10.585938 10.316406 -9.6875 11.0625 -8.164062 L 12.6875 -8.164062 C 11.925781 -10.503906 9.6875 -12.078125 6.980469 -12.078125 C 3.507812 -12.078125 0.984375 -9.484375 0.984375 -5.929688 C 0.984375 -2.355469 3.523438 0.21875 7.011719 0.21875 Z M 7.011719 0.21875 "/></g></g></g><g fill="#ffffff" fill-opacity="1"><g transform="translate(286.748968, 66.845129)"><g><path d="M 1.726562 0 L 3.203125 0 L 3.203125 -9.28125 L 9.757812 0 L 11.144531 0 L 11.144531 -11.855469 L 9.6875 -11.855469 L 9.6875 -2.574219 L 3.132812 -11.855469 L 1.726562 -11.855469 Z M 1.726562 0 "/></g></g></g><g fill="#ffffff" fill-opacity="1"><g transform="translate(305.212012, 66.845129)"><g><path d="M 5.675781 0.21875 C 8.265625 0.21875 9.941406 -1.050781 9.941406 -3.117188 C 9.941406 -4.863281 8.773438 -5.910156 5.742188 -6.65625 C 3.4375 -7.214844 2.675781 -7.824219 2.675781 -8.808594 C 2.675781 -9.941406 3.691406 -10.65625 5.386719 -10.65625 C 7.132812 -10.65625 8.214844 -9.773438 8.25 -8.351562 L 9.722656 -8.351562 C 9.707031 -10.65625 8.046875 -12.078125 5.386719 -12.078125 C 2.796875 -12.078125 1.152344 -10.808594 1.152344 -8.808594 C 1.152344 -6.980469 2.457031 -5.960938 5.371094 -5.269531 C 7.503906 -4.761719 8.402344 -4.167969 8.402344 -3.066406 C 8.402344 -1.898438 7.351562 -1.203125 5.675781 -1.203125 C 3.828125 -1.203125 2.539062 -2.117188 2.507812 -3.640625 L 1.015625 -3.640625 C 1.035156 -1.320312 2.847656 0.21875 5.675781 0.21875 Z M 5.675781 0.21875 "/></g></g></g></svg>