<svg xmlns="http://www.w3.org/2000/svg" xmlns:xlink="http://www.w3.org/1999/xlink" width="456" zoomAndPan="magnify" viewBox="0 0 342 76.499998" height="102" preserveAspectRatio="xMidYMid meet" version="1.0"><defs><g/><clipPath id="dab3238772"><path d="M 1.109375 0.417969 L 132 0.417969 L 132 71.195312 L 1.109375 71.195312 Z M 1.109375 0.417969 " clip-rule="nonzero"/></clipPath></defs><g clip-path="url(#dab3238772)"><path fill="#ffffff" d="M 82.320312 11.175781 L 131.847656 71.261719 L 12.875 71.261719 L 47.53125 29.234375 L 57.492188 41.285156 Z M 86.34375 54.613281 L 120.53125 65.984375 L 82.320312 19.539062 L 82.242188 37.597656 L 87.335938 42.277344 L 80.386719 46.144531 Z M 70.898438 65.984375 L 57.515625 49.648438 L 47.558594 37.597656 L 47.558594 50.457031 L 50.695312 52.941406 L 47.609375 58.480469 Z M 82.058594 5.636719 L 81.40625 10.050781 L 79.863281 8.25 L 57.515625 35.480469 L 47.558594 23.382812 L 24.191406 51.738281 L 8.066406 71.289062 L 1.167969 71.289062 L 17.292969 51.738281 L 47.53125 14.992188 L 57.492188 27.039062 L 76.4375 4.09375 L 74.898438 2.210938 L 78.632812 1.402344 L 82.867188 0.40625 Z M 82.058594 5.636719 " fill-opacity="1" fill-rule="nonzero"/></g><g fill="#ffffff" fill-opacity="1"><g transform="translate(130.291427, 43.469167)"><g><path d="M 10.007812 0.460938 C 15.367188 0.460938 18.539062 -2.0625 18.539062 -6.3125 C 18.539062 -9.886719 16.230469 -11.980469 10.996094 -13.148438 C 8.222656 -13.765625 7.207031 -14.445312 7.207031 -15.550781 C 7.207031 -16.597656 8.128906 -17.246094 9.578125 -17.246094 C 11.300781 -17.246094 12.289062 -16.351562 12.289062 -14.71875 L 18.140625 -14.71875 C 18.140625 -19.15625 14.75 -22.019531 9.453125 -22.019531 C 4.375 -22.019531 1.230469 -19.492188 1.230469 -15.429688 C 1.230469 -11.796875 3.601562 -9.546875 8.46875 -8.621094 C 11.085938 -8.097656 12.347656 -7.296875 12.347656 -6.066406 C 12.347656 -4.988281 11.425781 -4.375 9.917969 -4.375 C 8.128906 -4.375 7.082031 -5.328125 7.082031 -6.992188 L 1.078125 -6.992188 C 1.078125 -2.339844 4.402344 0.460938 10.007812 0.460938 Z M 10.007812 0.460938 "/></g></g></g><g fill="#ffffff" fill-opacity="1"><g transform="translate(159.516849, 43.469167)"><g><path d="M 15.152344 0 L 21.371094 0 L 21.371094 -21.558594 L 15.152344 -21.558594 L 15.152344 -13.828125 L 8.5 -13.828125 L 8.5 -21.558594 L 2.277344 -21.558594 L 2.277344 0 L 8.5 0 L 8.5 -8.097656 L 15.152344 -8.097656 Z M 15.152344 0 "/></g></g></g><g fill="#ffffff" fill-opacity="1"><g transform="translate(192.714803, 43.469167)"><g><path d="M 2.277344 0 L 8.5 0 L 8.5 -21.558594 L 2.277344 -21.558594 Z M 2.277344 0 "/></g></g></g><g fill="#ffffff" fill-opacity="1"><g transform="translate(213.040506, 43.469167)"><g><path d="M 2.277344 0 L 17.308594 0 L 17.308594 -5.757812 L 8.5 -5.757812 L 8.5 -21.558594 L 2.277344 -21.558594 Z M 2.277344 0 "/></g></g></g><g fill="#ffffff" fill-opacity="1"><g transform="translate(240.664588, 43.469167)"><g><path d="M 12.78125 0.460938 C 19.648438 0.460938 24.515625 -4.1875 24.515625 -10.777344 C 24.515625 -17.367188 19.648438 -22.019531 12.78125 -22.019531 C 5.914062 -22.019531 1.046875 -17.367188 1.046875 -10.777344 C 1.046875 -4.1875 5.914062 0.460938 12.78125 0.460938 Z M 7.359375 -10.777344 C 7.359375 -14.011719 9.609375 -16.261719 12.78125 -16.261719 C 15.984375 -16.261719 18.199219 -14.011719 18.199219 -10.777344 C 18.199219 -7.546875 15.984375 -5.296875 12.78125 -5.296875 C 9.609375 -5.296875 7.359375 -7.546875 7.359375 -10.777344 Z M 7.359375 -10.777344 "/></g></g></g><g fill="#ffffff" fill-opacity="1"><g transform="translate(275.802628, 43.469167)"><g><path d="M 15.152344 0 L 21.371094 0 L 21.371094 -21.558594 L 15.152344 -21.558594 L 15.152344 -13.828125 L 8.5 -13.828125 L 8.5 -21.558594 L 2.277344 -21.558594 L 2.277344 0 L 8.5 0 L 8.5 -8.097656 L 15.152344 -8.097656 Z M 15.152344 0 "/></g></g></g><g fill="#ffffff" fill-opacity="1"><g transform="translate(139.516316, 67.015323)"><g><path d="M 4.152344 0 L 5.539062 0 L 9.082031 -9.574219 L 11.042969 -4.304688 L 12.648438 0 L 14.03125 0 L 17.878906 -11.820312 L 16.328125 -11.820312 L 13.289062 -2.363281 L 9.792969 -11.820312 L 8.390625 -11.820312 L 4.898438 -2.378906 L 3.511719 -6.71875 L 1.875 -11.820312 L 0.320312 -11.820312 Z M 4.152344 0 "/></g></g></g><g fill="#ffffff" fill-opacity="1"><g transform="translate(163.288414, 67.015323)"><g><path d="M 1.722656 0 L 9.082031 0 L 9.082031 -1.382812 L 3.207031 -1.382812 L 3.207031 -5.335938 L 8.476562 -5.335938 L 8.476562 -6.703125 L 3.207031 -6.703125 L 3.207031 -10.433594 L 8.898438 -10.433594 L 8.898438 -11.820312 L 1.722656 -11.820312 Z M 1.722656 0 "/></g></g></g><g fill="#ffffff" fill-opacity="1"><g transform="translate(179.041657, 67.015323)"><g><path d="M 1.722656 0 L 6.515625 0 C 8.898438 0 10.382812 -1.265625 10.382812 -3.308594 C 10.382812 -4.644531 9.726562 -5.640625 8.511719 -6.128906 C 9.472656 -6.617188 10.046875 -7.53125 10.046875 -8.679688 C 10.046875 -10.585938 8.558594 -11.820312 6.296875 -11.820312 L 1.722656 -11.820312 Z M 3.207031 -1.382812 L 3.207031 -5.351562 L 6.46875 -5.351562 C 8.003906 -5.351562 8.863281 -4.625 8.863281 -3.375 C 8.863281 -2.109375 8.003906 -1.382812 6.484375 -1.382812 Z M 3.207031 -6.703125 L 3.207031 -10.433594 L 6.265625 -10.433594 C 7.699219 -10.433594 8.527344 -9.757812 8.527344 -8.558594 C 8.527344 -7.378906 7.714844 -6.703125 6.265625 -6.703125 Z M 3.207031 -6.703125 "/></g></g></g><g fill="#ffffff" fill-opacity="1"><g transform="translate(195.942862, 67.015323)"><g/></g></g><g fill="#ffffff" fill-opacity="1"><g transform="translate(205.703061, 67.015323)"><g><path d="M 1.722656 0 L 5.808594 0 C 9.4375 0 11.871094 -2.414062 11.871094 -5.910156 C 11.871094 -9.40625 9.4375 -11.820312 5.808594 -11.820312 L 1.722656 -11.820312 Z M 3.207031 -1.417969 L 3.207031 -10.402344 L 5.742188 -10.402344 C 8.492188 -10.402344 10.351562 -8.59375 10.351562 -5.910156 C 10.351562 -3.226562 8.511719 -1.417969 5.808594 -1.417969 Z M 3.207031 -1.417969 "/></g></g></g><g fill="#ffffff" fill-opacity="1"><g transform="translate(224.12362, 67.015323)"><g><path d="M 1.722656 0 L 9.082031 0 L 9.082031 -1.382812 L 3.207031 -1.382812 L 3.207031 -5.335938 L 8.476562 -5.335938 L 8.476562 -6.703125 L 3.207031 -6.703125 L 3.207031 -10.433594 L 8.898438 -10.433594 L 8.898438 -11.820312 L 1.722656 -11.820312 Z M 1.722656 0 "/></g></g></g><g fill="#ffffff" fill-opacity="1"><g transform="translate(239.876863, 67.015323)"><g><path d="M 5.65625 0.21875 C 8.238281 0.21875 9.910156 -1.046875 9.910156 -3.105469 C 9.910156 -4.847656 8.746094 -5.894531 5.722656 -6.636719 C 3.425781 -7.191406 2.667969 -7.800781 2.667969 -8.78125 C 2.667969 -9.910156 3.679688 -10.621094 5.371094 -10.621094 C 7.109375 -10.621094 8.1875 -9.742188 8.222656 -8.324219 L 9.691406 -8.324219 C 9.675781 -10.621094 8.019531 -12.039062 5.371094 -12.039062 C 2.785156 -12.039062 1.148438 -10.773438 1.148438 -8.78125 C 1.148438 -6.957031 2.449219 -5.945312 5.351562 -5.25 C 7.480469 -4.746094 8.375 -4.152344 8.375 -3.054688 C 8.375 -1.890625 7.328125 -1.199219 5.65625 -1.199219 C 3.816406 -1.199219 2.53125 -2.109375 2.5 -3.628906 L 1.011719 -3.628906 C 1.03125 -1.316406 2.835938 0.21875 5.65625 0.21875 Z M 5.65625 0.21875 "/></g></g></g><g fill="#ffffff" fill-opacity="1"><g transform="translate(256.3729, 67.015323)"><g><path d="M 1.722656 0 L 3.207031 0 L 3.207031 -11.820312 L 1.722656 -11.820312 Z M 1.722656 0 "/></g></g></g><g fill="#ffffff" fill-opacity="1"><g transform="translate(266.875892, 67.015323)"><g><path d="M 6.992188 0.21875 C 10.621094 0.21875 13.070312 -2.53125 13 -6.417969 L 6.585938 -6.417969 L 6.585938 -4.996094 L 11.398438 -4.996094 C 11.09375 -2.769531 9.40625 -1.265625 7.023438 -1.265625 C 4.375 -1.265625 2.5 -3.175781 2.5 -5.910156 C 2.5 -8.644531 4.355469 -10.554688 7.007812 -10.554688 C 8.832031 -10.554688 10.28125 -9.65625 11.027344 -8.136719 L 12.648438 -8.136719 C 11.886719 -10.46875 9.65625 -12.039062 6.957031 -12.039062 C 3.496094 -12.039062 0.980469 -9.457031 0.980469 -5.910156 C 0.980469 -2.347656 3.511719 0.21875 6.992188 0.21875 Z M 6.992188 0.21875 "/></g></g></g><g fill="#ffffff" fill-opacity="1"><g transform="translate(286.376882, 67.015323)"><g><path d="M 1.722656 0 L 3.191406 0 L 3.191406 -9.253906 L 9.726562 0 L 11.109375 0 L 11.109375 -11.820312 L 9.65625 -11.820312 L 9.65625 -2.566406 L 3.125 -11.820312 L 1.722656 -11.820312 Z M 1.722656 0 "/></g></g></g><g fill="#ffffff" fill-opacity="1"><g transform="translate(304.780574, 67.015323)"><g><path d="M 5.65625 0.21875 C 8.238281 0.21875 9.910156 -1.046875 9.910156 -3.105469 C 9.910156 -4.847656 8.746094 -5.894531 5.722656 -6.636719 C 3.425781 -7.191406 2.667969 -7.800781 2.667969 -8.78125 C 2.667969 -9.910156 3.679688 -10.621094 5.371094 -10.621094 C 7.109375 -10.621094 8.1875 -9.742188 8.222656 -8.324219 L 9.691406 -8.324219 C 9.675781 -10.621094 8.019531 -12.039062 5.371094 -12.039062 C 2.785156 -12.039062 1.148438 -10.773438 1.148438 -8.78125 C 1.148438 -6.957031 2.449219 -5.945312 5.351562 -5.25 C 7.480469 -4.746094 8.375 -4.152344 8.375 -3.054688 C 8.375 -1.890625 7.328125 -1.199219 5.65625 -1.199219 C 3.816406 -1.199219 2.53125 -2.109375 2.5 -3.628906 L 1.011719 -3.628906 C 1.03125 -1.316406 2.835938 0.21875 5.65625 0.21875 Z M 5.65625 0.21875 "/></g></g></g></svg>